<mxfile host="app.diagrams.net" modified="2023-04-07T07:19:59.997Z" agent="Mozilla/5.0 (Macintosh; Intel Mac OS X 10_15_7) AppleWebKit/537.36 (KHTML, like Gecko) Chrome/98.0.4758.87 Safari/537.36" etag="f1V61nY2xfKSnexyqFRy" version="21.1.4" type="github">
  <diagram name="Page-1" id="_Mq730CpOTIK_EJbr8pR">
    <mxGraphModel dx="1194" dy="719" grid="1" gridSize="10" guides="1" tooltips="1" connect="1" arrows="1" fold="1" page="1" pageScale="1" pageWidth="827" pageHeight="1169" math="0" shadow="0">
      <root>
        <mxCell id="0" />
        <mxCell id="1" parent="0" />
        <mxCell id="2BZG7tl-g-K6Shy4kgfQ-9" value="in-memory storage" style="whiteSpace=wrap;html=1;rounded=1;arcSize=50;align=center;verticalAlign=middle;strokeWidth=1;autosize=1;spacing=4;treeFolding=1;treeMoving=1;newEdgeStyle={&quot;edgeStyle&quot;:&quot;entityRelationEdgeStyle&quot;,&quot;startArrow&quot;:&quot;none&quot;,&quot;endArrow&quot;:&quot;none&quot;,&quot;segment&quot;:10,&quot;curved&quot;:1,&quot;sourcePerimeterSpacing&quot;:0,&quot;targetPerimeterSpacing&quot;:0};" parent="1" vertex="1">
          <mxGeometry x="150" y="160" width="140" height="30" as="geometry" />
        </mxCell>
        <mxCell id="2BZG7tl-g-K6Shy4kgfQ-1" value="" style="swimlane;startSize=20;horizontal=1;containerType=tree;strokeColor=none;fillColor=default;" parent="1" vertex="1">
          <mxGeometry x="210" y="200" width="420" height="126" as="geometry">
            <mxRectangle x="220" y="200" width="90" height="30" as="alternateBounds" />
          </mxGeometry>
        </mxCell>
        <mxCell id="2BZG7tl-g-K6Shy4kgfQ-6" value="cache" style="ellipse;whiteSpace=wrap;html=1;align=center;treeFolding=1;treeMoving=1;newEdgeStyle={&quot;edgeStyle&quot;:&quot;entityRelationEdgeStyle&quot;,&quot;startArrow&quot;:&quot;none&quot;,&quot;endArrow&quot;:&quot;none&quot;,&quot;segment&quot;:10,&quot;curved&quot;:1,&quot;sourcePerimeterSpacing&quot;:0,&quot;targetPerimeterSpacing&quot;:0};shadow=0;noLabel=0;" parent="2BZG7tl-g-K6Shy4kgfQ-1" vertex="1">
          <mxGeometry x="160" y="60" width="100" height="40" as="geometry" />
        </mxCell>
        <mxCell id="2BZG7tl-g-K6Shy4kgfQ-4" value="" style="edgeStyle=entityRelationEdgeStyle;startArrow=none;endArrow=none;segment=10;curved=1;sourcePerimeterSpacing=0;targetPerimeterSpacing=0;rounded=0;" parent="1" source="2BZG7tl-g-K6Shy4kgfQ-6" target="2BZG7tl-g-K6Shy4kgfQ-9" edge="1">
          <mxGeometry relative="1" as="geometry" />
        </mxCell>
        <mxCell id="4cRs8yxphezBTt36DPzO-1" value="what is a cache" style="edgeLabel;html=1;align=center;verticalAlign=middle;resizable=0;points=[];" vertex="1" connectable="0" parent="2BZG7tl-g-K6Shy4kgfQ-4">
          <mxGeometry x="0.12" y="-1" relative="1" as="geometry">
            <mxPoint as="offset" />
          </mxGeometry>
        </mxCell>
        <mxCell id="4cRs8yxphezBTt36DPzO-5" value="" style="edgeStyle=entityRelationEdgeStyle;rounded=0;orthogonalLoop=1;jettySize=auto;html=1;startArrow=none;endArrow=none;segment=10;curved=1;sourcePerimeterSpacing=0;targetPerimeterSpacing=0;" edge="1" parent="1" source="2BZG7tl-g-K6Shy4kgfQ-7" target="4cRs8yxphezBTt36DPzO-4">
          <mxGeometry relative="1" as="geometry" />
        </mxCell>
        <mxCell id="4cRs8yxphezBTt36DPzO-7" value="" style="edgeStyle=entityRelationEdgeStyle;rounded=0;orthogonalLoop=1;jettySize=auto;html=1;startArrow=none;endArrow=none;segment=10;curved=1;sourcePerimeterSpacing=0;targetPerimeterSpacing=0;" edge="1" parent="1" source="2BZG7tl-g-K6Shy4kgfQ-7" target="4cRs8yxphezBTt36DPzO-4">
          <mxGeometry relative="1" as="geometry" />
        </mxCell>
        <mxCell id="4cRs8yxphezBTt36DPzO-9" value="" style="edgeStyle=entityRelationEdgeStyle;rounded=0;orthogonalLoop=1;jettySize=auto;html=1;startArrow=none;endArrow=none;segment=10;curved=1;sourcePerimeterSpacing=0;targetPerimeterSpacing=0;" edge="1" parent="1" source="2BZG7tl-g-K6Shy4kgfQ-7" target="4cRs8yxphezBTt36DPzO-8">
          <mxGeometry relative="1" as="geometry" />
        </mxCell>
        <mxCell id="2BZG7tl-g-K6Shy4kgfQ-7" value="cache replacement and invalidation" style="whiteSpace=wrap;html=1;rounded=1;arcSize=50;align=center;verticalAlign=middle;strokeWidth=1;autosize=1;spacing=4;treeFolding=1;treeMoving=1;newEdgeStyle={&quot;edgeStyle&quot;:&quot;entityRelationEdgeStyle&quot;,&quot;startArrow&quot;:&quot;none&quot;,&quot;endArrow&quot;:&quot;none&quot;,&quot;segment&quot;:10,&quot;curved&quot;:1,&quot;sourcePerimeterSpacing&quot;:0,&quot;targetPerimeterSpacing&quot;:0};" parent="1" vertex="1">
          <mxGeometry x="510" y="155" width="230" height="30" as="geometry" />
        </mxCell>
        <mxCell id="2BZG7tl-g-K6Shy4kgfQ-2" value="" style="edgeStyle=entityRelationEdgeStyle;startArrow=none;endArrow=none;segment=10;curved=1;sourcePerimeterSpacing=0;targetPerimeterSpacing=0;rounded=0;" parent="1" source="2BZG7tl-g-K6Shy4kgfQ-6" target="2BZG7tl-g-K6Shy4kgfQ-7" edge="1">
          <mxGeometry relative="1" as="geometry" />
        </mxCell>
        <mxCell id="4cRs8yxphezBTt36DPzO-15" value="" style="edgeStyle=entityRelationEdgeStyle;rounded=0;orthogonalLoop=1;jettySize=auto;html=1;startArrow=none;endArrow=none;segment=10;curved=1;sourcePerimeterSpacing=0;targetPerimeterSpacing=0;" edge="1" parent="1" source="4cRs8yxphezBTt36DPzO-4" target="4cRs8yxphezBTt36DPzO-14">
          <mxGeometry relative="1" as="geometry" />
        </mxCell>
        <mxCell id="4cRs8yxphezBTt36DPzO-20" value="" style="edgeStyle=entityRelationEdgeStyle;rounded=0;orthogonalLoop=1;jettySize=auto;html=1;startArrow=none;endArrow=none;segment=10;curved=1;sourcePerimeterSpacing=0;targetPerimeterSpacing=0;" edge="1" parent="1" source="4cRs8yxphezBTt36DPzO-4" target="4cRs8yxphezBTt36DPzO-19">
          <mxGeometry relative="1" as="geometry" />
        </mxCell>
        <mxCell id="4cRs8yxphezBTt36DPzO-4" value="replacement" style="whiteSpace=wrap;html=1;rounded=1;arcSize=50;align=center;verticalAlign=middle;strokeWidth=1;autosize=1;spacing=4;treeFolding=1;treeMoving=1;newEdgeStyle={&quot;edgeStyle&quot;:&quot;entityRelationEdgeStyle&quot;,&quot;startArrow&quot;:&quot;none&quot;,&quot;endArrow&quot;:&quot;none&quot;,&quot;segment&quot;:10,&quot;curved&quot;:1,&quot;sourcePerimeterSpacing&quot;:0,&quot;targetPerimeterSpacing&quot;:0};" vertex="1" parent="1">
          <mxGeometry x="765" y="85" width="110" height="30" as="geometry" />
        </mxCell>
        <mxCell id="4cRs8yxphezBTt36DPzO-22" value="" style="edgeStyle=entityRelationEdgeStyle;rounded=0;orthogonalLoop=1;jettySize=auto;html=1;startArrow=none;endArrow=none;segment=10;curved=1;sourcePerimeterSpacing=0;targetPerimeterSpacing=0;" edge="1" parent="1" source="4cRs8yxphezBTt36DPzO-8" target="4cRs8yxphezBTt36DPzO-21">
          <mxGeometry relative="1" as="geometry" />
        </mxCell>
        <mxCell id="4cRs8yxphezBTt36DPzO-8" value="invalidation" style="whiteSpace=wrap;html=1;rounded=1;arcSize=50;align=center;verticalAlign=middle;strokeWidth=1;autosize=1;spacing=4;treeFolding=1;treeMoving=1;newEdgeStyle={&quot;edgeStyle&quot;:&quot;entityRelationEdgeStyle&quot;,&quot;startArrow&quot;:&quot;none&quot;,&quot;endArrow&quot;:&quot;none&quot;,&quot;segment&quot;:10,&quot;curved&quot;:1,&quot;sourcePerimeterSpacing&quot;:0,&quot;targetPerimeterSpacing&quot;:0};" vertex="1" parent="1">
          <mxGeometry x="770" y="225" width="100" height="30" as="geometry" />
        </mxCell>
        <mxCell id="4cRs8yxphezBTt36DPzO-14" value="LRU" style="whiteSpace=wrap;html=1;rounded=1;arcSize=50;align=center;verticalAlign=middle;strokeWidth=1;autosize=1;spacing=4;treeFolding=1;treeMoving=1;newEdgeStyle={&quot;edgeStyle&quot;:&quot;entityRelationEdgeStyle&quot;,&quot;startArrow&quot;:&quot;none&quot;,&quot;endArrow&quot;:&quot;none&quot;,&quot;segment&quot;:10,&quot;curved&quot;:1,&quot;sourcePerimeterSpacing&quot;:0,&quot;targetPerimeterSpacing&quot;:0};" vertex="1" parent="1">
          <mxGeometry x="920" y="55" width="70" height="30" as="geometry" />
        </mxCell>
        <mxCell id="4cRs8yxphezBTt36DPzO-19" value="LFU" style="whiteSpace=wrap;html=1;rounded=1;arcSize=50;align=center;verticalAlign=middle;strokeWidth=1;autosize=1;spacing=4;treeFolding=1;treeMoving=1;newEdgeStyle={&quot;edgeStyle&quot;:&quot;entityRelationEdgeStyle&quot;,&quot;startArrow&quot;:&quot;none&quot;,&quot;endArrow&quot;:&quot;none&quot;,&quot;segment&quot;:10,&quot;curved&quot;:1,&quot;sourcePerimeterSpacing&quot;:0,&quot;targetPerimeterSpacing&quot;:0};" vertex="1" parent="1">
          <mxGeometry x="920" y="115" width="70" height="30" as="geometry" />
        </mxCell>
        <mxCell id="4cRs8yxphezBTt36DPzO-21" value="TTL" style="whiteSpace=wrap;html=1;rounded=1;arcSize=50;align=center;verticalAlign=middle;strokeWidth=1;autosize=1;spacing=4;treeFolding=1;treeMoving=1;newEdgeStyle={&quot;edgeStyle&quot;:&quot;entityRelationEdgeStyle&quot;,&quot;startArrow&quot;:&quot;none&quot;,&quot;endArrow&quot;:&quot;none&quot;,&quot;segment&quot;:10,&quot;curved&quot;:1,&quot;sourcePerimeterSpacing&quot;:0,&quot;targetPerimeterSpacing&quot;:0};" vertex="1" parent="1">
          <mxGeometry x="920" y="225" width="70" height="30" as="geometry" />
        </mxCell>
        <mxCell id="4cRs8yxphezBTt36DPzO-34" value="" style="edgeStyle=entityRelationEdgeStyle;rounded=0;orthogonalLoop=1;jettySize=auto;html=1;startArrow=none;endArrow=none;segment=10;curved=1;sourcePerimeterSpacing=0;targetPerimeterSpacing=0;" edge="1" parent="1" source="4cRs8yxphezBTt36DPzO-27" target="4cRs8yxphezBTt36DPzO-33">
          <mxGeometry relative="1" as="geometry" />
        </mxCell>
        <mxCell id="4cRs8yxphezBTt36DPzO-36" value="" style="edgeStyle=entityRelationEdgeStyle;rounded=0;orthogonalLoop=1;jettySize=auto;html=1;startArrow=none;endArrow=none;segment=10;curved=1;sourcePerimeterSpacing=0;targetPerimeterSpacing=0;" edge="1" parent="1" source="4cRs8yxphezBTt36DPzO-27" target="4cRs8yxphezBTt36DPzO-35">
          <mxGeometry relative="1" as="geometry" />
        </mxCell>
        <mxCell id="4cRs8yxphezBTt36DPzO-38" value="" style="edgeStyle=entityRelationEdgeStyle;rounded=0;orthogonalLoop=1;jettySize=auto;html=1;startArrow=none;endArrow=none;segment=10;curved=1;sourcePerimeterSpacing=0;targetPerimeterSpacing=0;" edge="1" parent="1" source="4cRs8yxphezBTt36DPzO-27" target="4cRs8yxphezBTt36DPzO-35">
          <mxGeometry relative="1" as="geometry" />
        </mxCell>
        <mxCell id="4cRs8yxphezBTt36DPzO-40" value="" style="edgeStyle=entityRelationEdgeStyle;rounded=0;orthogonalLoop=1;jettySize=auto;html=1;startArrow=none;endArrow=none;segment=10;curved=1;sourcePerimeterSpacing=0;targetPerimeterSpacing=0;" edge="1" parent="1" source="4cRs8yxphezBTt36DPzO-27" target="4cRs8yxphezBTt36DPzO-39">
          <mxGeometry relative="1" as="geometry" />
        </mxCell>
        <mxCell id="4cRs8yxphezBTt36DPzO-42" value="" style="edgeStyle=entityRelationEdgeStyle;rounded=0;orthogonalLoop=1;jettySize=auto;html=1;startArrow=none;endArrow=none;segment=10;curved=1;sourcePerimeterSpacing=0;targetPerimeterSpacing=0;" edge="1" parent="1" source="4cRs8yxphezBTt36DPzO-27" target="4cRs8yxphezBTt36DPzO-41">
          <mxGeometry relative="1" as="geometry" />
        </mxCell>
        <mxCell id="4cRs8yxphezBTt36DPzO-44" value="" style="edgeStyle=entityRelationEdgeStyle;rounded=0;orthogonalLoop=1;jettySize=auto;html=1;startArrow=none;endArrow=none;segment=10;curved=1;sourcePerimeterSpacing=0;targetPerimeterSpacing=0;" edge="1" parent="1" source="4cRs8yxphezBTt36DPzO-27" target="4cRs8yxphezBTt36DPzO-43">
          <mxGeometry relative="1" as="geometry" />
        </mxCell>
        <mxCell id="4cRs8yxphezBTt36DPzO-27" value="cache strategies" style="whiteSpace=wrap;html=1;rounded=1;arcSize=50;align=center;verticalAlign=middle;strokeWidth=1;autosize=1;spacing=4;treeFolding=1;treeMoving=1;newEdgeStyle={&quot;edgeStyle&quot;:&quot;entityRelationEdgeStyle&quot;,&quot;startArrow&quot;:&quot;none&quot;,&quot;endArrow&quot;:&quot;none&quot;,&quot;segment&quot;:10,&quot;curved&quot;:1,&quot;sourcePerimeterSpacing&quot;:0,&quot;targetPerimeterSpacing&quot;:0};" vertex="1" parent="1">
          <mxGeometry x="510" y="326" width="130" height="30" as="geometry" />
        </mxCell>
        <mxCell id="4cRs8yxphezBTt36DPzO-30" style="edgeStyle=entityRelationEdgeStyle;rounded=0;orthogonalLoop=1;jettySize=auto;html=1;startArrow=none;endArrow=none;segment=10;curved=1;sourcePerimeterSpacing=0;targetPerimeterSpacing=0;entryX=0;entryY=0.5;entryDx=0;entryDy=0;" edge="1" parent="1" source="2BZG7tl-g-K6Shy4kgfQ-6" target="4cRs8yxphezBTt36DPzO-27">
          <mxGeometry relative="1" as="geometry" />
        </mxCell>
        <mxCell id="4cRs8yxphezBTt36DPzO-33" value="Cache-aside" style="whiteSpace=wrap;html=1;rounded=1;arcSize=50;align=center;verticalAlign=middle;strokeWidth=1;autosize=1;spacing=4;treeFolding=1;treeMoving=1;newEdgeStyle={&quot;edgeStyle&quot;:&quot;entityRelationEdgeStyle&quot;,&quot;startArrow&quot;:&quot;none&quot;,&quot;endArrow&quot;:&quot;none&quot;,&quot;segment&quot;:10,&quot;curved&quot;:1,&quot;sourcePerimeterSpacing&quot;:0,&quot;targetPerimeterSpacing&quot;:0};" vertex="1" parent="1">
          <mxGeometry x="761.5" y="290" width="120" height="30" as="geometry" />
        </mxCell>
        <mxCell id="4cRs8yxphezBTt36DPzO-35" value="Write-through" style="whiteSpace=wrap;html=1;rounded=1;arcSize=50;align=center;verticalAlign=middle;strokeWidth=1;autosize=1;spacing=4;treeFolding=1;treeMoving=1;newEdgeStyle={&quot;edgeStyle&quot;:&quot;entityRelationEdgeStyle&quot;,&quot;startArrow&quot;:&quot;none&quot;,&quot;endArrow&quot;:&quot;none&quot;,&quot;segment&quot;:10,&quot;curved&quot;:1,&quot;sourcePerimeterSpacing&quot;:0,&quot;targetPerimeterSpacing&quot;:0};" vertex="1" parent="1">
          <mxGeometry x="761.5" y="400" width="120" height="30" as="geometry" />
        </mxCell>
        <mxCell id="4cRs8yxphezBTt36DPzO-39" value="Write-around" style="whiteSpace=wrap;html=1;rounded=1;arcSize=50;align=center;verticalAlign=middle;strokeWidth=1;autosize=1;spacing=4;treeFolding=1;treeMoving=1;newEdgeStyle={&quot;edgeStyle&quot;:&quot;entityRelationEdgeStyle&quot;,&quot;startArrow&quot;:&quot;none&quot;,&quot;endArrow&quot;:&quot;none&quot;,&quot;segment&quot;:10,&quot;curved&quot;:1,&quot;sourcePerimeterSpacing&quot;:0,&quot;targetPerimeterSpacing&quot;:0};" vertex="1" parent="1">
          <mxGeometry x="758.5" y="440" width="123" height="30" as="geometry" />
        </mxCell>
        <mxCell id="4cRs8yxphezBTt36DPzO-41" value="Write-back" style="whiteSpace=wrap;html=1;rounded=1;arcSize=50;align=center;verticalAlign=middle;strokeWidth=1;autosize=1;spacing=4;treeFolding=1;treeMoving=1;newEdgeStyle={&quot;edgeStyle&quot;:&quot;entityRelationEdgeStyle&quot;,&quot;startArrow&quot;:&quot;none&quot;,&quot;endArrow&quot;:&quot;none&quot;,&quot;segment&quot;:10,&quot;curved&quot;:1,&quot;sourcePerimeterSpacing&quot;:0,&quot;targetPerimeterSpacing&quot;:0};" vertex="1" parent="1">
          <mxGeometry x="761.5" y="480" width="120" height="30" as="geometry" />
        </mxCell>
        <mxCell id="4cRs8yxphezBTt36DPzO-43" value="Read-through" style="whiteSpace=wrap;html=1;rounded=1;arcSize=50;align=center;verticalAlign=middle;strokeWidth=1;autosize=1;spacing=4;treeFolding=1;treeMoving=1;newEdgeStyle={&quot;edgeStyle&quot;:&quot;entityRelationEdgeStyle&quot;,&quot;startArrow&quot;:&quot;none&quot;,&quot;endArrow&quot;:&quot;none&quot;,&quot;segment&quot;:10,&quot;curved&quot;:1,&quot;sourcePerimeterSpacing&quot;:0,&quot;targetPerimeterSpacing&quot;:0};" vertex="1" parent="1">
          <mxGeometry x="761.5" y="330" width="120" height="30" as="geometry" />
        </mxCell>
      </root>
    </mxGraphModel>
  </diagram>
</mxfile>
